<mxfile host="Electron" agent="Mozilla/5.0 (Macintosh; Intel Mac OS X 10_15_7) AppleWebKit/537.36 (KHTML, like Gecko) draw.io/25.0.2 Chrome/128.0.6613.186 Electron/32.2.5 Safari/537.36" version="25.0.2">
  <diagram name="第 1 页" id="i00tv9XfEnHMKbIgO5Iz">
    <mxGraphModel dx="909" dy="682" grid="1" gridSize="10" guides="1" tooltips="1" connect="1" arrows="1" fold="1" page="1" pageScale="1" pageWidth="827" pageHeight="1169" math="0" shadow="0">
      <root>
        <mxCell id="0" />
        <mxCell id="1" parent="0" />
        <mxCell id="mvvNwBFlLe_bmaQ3kqd8-4" value="" style="edgeStyle=orthogonalEdgeStyle;rounded=0;orthogonalLoop=1;jettySize=auto;html=1;" edge="1" parent="1" source="mvvNwBFlLe_bmaQ3kqd8-1" target="mvvNwBFlLe_bmaQ3kqd8-3">
          <mxGeometry relative="1" as="geometry" />
        </mxCell>
        <mxCell id="mvvNwBFlLe_bmaQ3kqd8-1" value="" style="ellipse;fillColor=strokeColor;html=1;" vertex="1" parent="1">
          <mxGeometry x="370" y="20" width="30" height="30" as="geometry" />
        </mxCell>
        <mxCell id="mvvNwBFlLe_bmaQ3kqd8-52" style="edgeStyle=orthogonalEdgeStyle;rounded=0;orthogonalLoop=1;jettySize=auto;html=1;entryX=0.5;entryY=0;entryDx=0;entryDy=0;" edge="1" parent="1" source="mvvNwBFlLe_bmaQ3kqd8-2" target="mvvNwBFlLe_bmaQ3kqd8-6">
          <mxGeometry relative="1" as="geometry">
            <Array as="points">
              <mxPoint x="210" y="140" />
              <mxPoint x="210" y="140" />
            </Array>
          </mxGeometry>
        </mxCell>
        <mxCell id="mvvNwBFlLe_bmaQ3kqd8-53" style="edgeStyle=orthogonalEdgeStyle;rounded=0;orthogonalLoop=1;jettySize=auto;html=1;entryX=0.5;entryY=0;entryDx=0;entryDy=0;" edge="1" parent="1" source="mvvNwBFlLe_bmaQ3kqd8-2" target="mvvNwBFlLe_bmaQ3kqd8-23">
          <mxGeometry relative="1" as="geometry">
            <Array as="points">
              <mxPoint x="550" y="150" />
              <mxPoint x="550" y="150" />
            </Array>
          </mxGeometry>
        </mxCell>
        <mxCell id="mvvNwBFlLe_bmaQ3kqd8-2" value="" style="html=1;points=[];perimeter=orthogonalPerimeter;fillColor=strokeColor;direction=south;" vertex="1" parent="1">
          <mxGeometry x="132.5" y="130" width="517.5" height="5" as="geometry" />
        </mxCell>
        <mxCell id="mvvNwBFlLe_bmaQ3kqd8-3" value="receive order" style="rounded=1;whiteSpace=wrap;html=1;" vertex="1" parent="1">
          <mxGeometry x="335" y="80" width="100" height="30" as="geometry" />
        </mxCell>
        <mxCell id="mvvNwBFlLe_bmaQ3kqd8-5" style="edgeStyle=orthogonalEdgeStyle;rounded=0;orthogonalLoop=1;jettySize=auto;html=1;entryX=0.2;entryY=0.512;entryDx=0;entryDy=0;entryPerimeter=0;" edge="1" parent="1" source="mvvNwBFlLe_bmaQ3kqd8-3" target="mvvNwBFlLe_bmaQ3kqd8-2">
          <mxGeometry relative="1" as="geometry" />
        </mxCell>
        <mxCell id="mvvNwBFlLe_bmaQ3kqd8-10" value="" style="edgeStyle=orthogonalEdgeStyle;rounded=0;orthogonalLoop=1;jettySize=auto;html=1;" edge="1" parent="1" source="mvvNwBFlLe_bmaQ3kqd8-6" target="mvvNwBFlLe_bmaQ3kqd8-9">
          <mxGeometry relative="1" as="geometry" />
        </mxCell>
        <mxCell id="mvvNwBFlLe_bmaQ3kqd8-6" value="check client data" style="rounded=1;whiteSpace=wrap;html=1;" vertex="1" parent="1">
          <mxGeometry x="160" y="180" width="100" height="30" as="geometry" />
        </mxCell>
        <mxCell id="mvvNwBFlLe_bmaQ3kqd8-18" style="edgeStyle=orthogonalEdgeStyle;rounded=0;orthogonalLoop=1;jettySize=auto;html=1;exitX=0;exitY=0.5;exitDx=0;exitDy=0;entryX=0.5;entryY=0;entryDx=0;entryDy=0;" edge="1" parent="1" source="mvvNwBFlLe_bmaQ3kqd8-9" target="mvvNwBFlLe_bmaQ3kqd8-11">
          <mxGeometry relative="1" as="geometry" />
        </mxCell>
        <mxCell id="mvvNwBFlLe_bmaQ3kqd8-22" style="edgeStyle=orthogonalEdgeStyle;rounded=0;orthogonalLoop=1;jettySize=auto;html=1;entryX=0.5;entryY=0;entryDx=0;entryDy=0;exitX=1;exitY=0.5;exitDx=0;exitDy=0;" edge="1" parent="1" source="mvvNwBFlLe_bmaQ3kqd8-9" target="mvvNwBFlLe_bmaQ3kqd8-20">
          <mxGeometry relative="1" as="geometry" />
        </mxCell>
        <mxCell id="mvvNwBFlLe_bmaQ3kqd8-9" value="credit card&lt;div&gt;data valid?&lt;/div&gt;" style="rhombus;whiteSpace=wrap;html=1;rounded=1;" vertex="1" parent="1">
          <mxGeometry x="170" y="255" width="80" height="80" as="geometry" />
        </mxCell>
        <mxCell id="mvvNwBFlLe_bmaQ3kqd8-13" value="" style="edgeStyle=orthogonalEdgeStyle;rounded=0;orthogonalLoop=1;jettySize=auto;html=1;" edge="1" parent="1" source="mvvNwBFlLe_bmaQ3kqd8-11" target="mvvNwBFlLe_bmaQ3kqd8-12">
          <mxGeometry relative="1" as="geometry" />
        </mxCell>
        <mxCell id="mvvNwBFlLe_bmaQ3kqd8-11" value="wait for payment" style="rounded=1;whiteSpace=wrap;html=1;" vertex="1" parent="1">
          <mxGeometry x="70" y="360" width="100" height="30" as="geometry" />
        </mxCell>
        <mxCell id="mvvNwBFlLe_bmaQ3kqd8-15" value="" style="edgeStyle=orthogonalEdgeStyle;rounded=0;orthogonalLoop=1;jettySize=auto;html=1;" edge="1" parent="1" source="mvvNwBFlLe_bmaQ3kqd8-12" target="mvvNwBFlLe_bmaQ3kqd8-14">
          <mxGeometry relative="1" as="geometry" />
        </mxCell>
        <mxCell id="mvvNwBFlLe_bmaQ3kqd8-12" value="send receipt" style="rounded=1;whiteSpace=wrap;html=1;" vertex="1" parent="1">
          <mxGeometry x="70" y="430" width="100" height="30" as="geometry" />
        </mxCell>
        <mxCell id="mvvNwBFlLe_bmaQ3kqd8-17" value="" style="edgeStyle=orthogonalEdgeStyle;rounded=0;orthogonalLoop=1;jettySize=auto;html=1;" edge="1" parent="1" source="mvvNwBFlLe_bmaQ3kqd8-14" target="mvvNwBFlLe_bmaQ3kqd8-16">
          <mxGeometry relative="1" as="geometry" />
        </mxCell>
        <mxCell id="mvvNwBFlLe_bmaQ3kqd8-14" value="register payment in Archive" style="rounded=1;whiteSpace=wrap;html=1;" vertex="1" parent="1">
          <mxGeometry x="70" y="500" width="100" height="30" as="geometry" />
        </mxCell>
        <mxCell id="mvvNwBFlLe_bmaQ3kqd8-16" value="notify client of payment" style="rounded=1;whiteSpace=wrap;html=1;" vertex="1" parent="1">
          <mxGeometry x="70" y="569.5" width="100" height="30" as="geometry" />
        </mxCell>
        <mxCell id="mvvNwBFlLe_bmaQ3kqd8-19" value="yes" style="text;html=1;align=center;verticalAlign=middle;resizable=0;points=[];autosize=1;strokeColor=none;fillColor=none;" vertex="1" parent="1">
          <mxGeometry x="90" y="268" width="40" height="30" as="geometry" />
        </mxCell>
        <mxCell id="mvvNwBFlLe_bmaQ3kqd8-20" value="request valid credit card data" style="rounded=1;whiteSpace=wrap;html=1;" vertex="1" parent="1">
          <mxGeometry x="235" y="350" width="100" height="30" as="geometry" />
        </mxCell>
        <mxCell id="mvvNwBFlLe_bmaQ3kqd8-29" style="edgeStyle=orthogonalEdgeStyle;rounded=0;orthogonalLoop=1;jettySize=auto;html=1;entryX=0.5;entryY=0;entryDx=0;entryDy=0;" edge="1" parent="1" source="mvvNwBFlLe_bmaQ3kqd8-23" target="mvvNwBFlLe_bmaQ3kqd8-26">
          <mxGeometry relative="1" as="geometry" />
        </mxCell>
        <mxCell id="mvvNwBFlLe_bmaQ3kqd8-23" value="check inventory" style="rounded=1;whiteSpace=wrap;html=1;" vertex="1" parent="1">
          <mxGeometry x="500" y="180" width="100" height="30" as="geometry" />
        </mxCell>
        <mxCell id="mvvNwBFlLe_bmaQ3kqd8-38" style="edgeStyle=orthogonalEdgeStyle;rounded=0;orthogonalLoop=1;jettySize=auto;html=1;exitX=1;exitY=0.5;exitDx=0;exitDy=0;entryX=0.5;entryY=0;entryDx=0;entryDy=0;" edge="1" parent="1" source="mvvNwBFlLe_bmaQ3kqd8-26" target="mvvNwBFlLe_bmaQ3kqd8-33">
          <mxGeometry relative="1" as="geometry" />
        </mxCell>
        <mxCell id="mvvNwBFlLe_bmaQ3kqd8-39" style="edgeStyle=orthogonalEdgeStyle;rounded=0;orthogonalLoop=1;jettySize=auto;html=1;exitX=0;exitY=0.5;exitDx=0;exitDy=0;entryX=0.5;entryY=0;entryDx=0;entryDy=0;" edge="1" parent="1" source="mvvNwBFlLe_bmaQ3kqd8-26" target="mvvNwBFlLe_bmaQ3kqd8-30">
          <mxGeometry relative="1" as="geometry" />
        </mxCell>
        <mxCell id="mvvNwBFlLe_bmaQ3kqd8-26" value="product avaliable" style="rhombus;whiteSpace=wrap;html=1;rounded=1;" vertex="1" parent="1">
          <mxGeometry x="510" y="255" width="80" height="80" as="geometry" />
        </mxCell>
        <mxCell id="mvvNwBFlLe_bmaQ3kqd8-30" value="reserve product" style="rounded=1;whiteSpace=wrap;html=1;" vertex="1" parent="1">
          <mxGeometry x="410" y="350" width="100" height="30" as="geometry" />
        </mxCell>
        <mxCell id="mvvNwBFlLe_bmaQ3kqd8-36" style="edgeStyle=orthogonalEdgeStyle;rounded=0;orthogonalLoop=1;jettySize=auto;html=1;exitX=0;exitY=0.5;exitDx=0;exitDy=0;entryX=0.5;entryY=0;entryDx=0;entryDy=0;" edge="1" parent="1" source="mvvNwBFlLe_bmaQ3kqd8-33" target="mvvNwBFlLe_bmaQ3kqd8-34">
          <mxGeometry relative="1" as="geometry" />
        </mxCell>
        <mxCell id="mvvNwBFlLe_bmaQ3kqd8-33" value="internally produced&lt;span style=&quot;color: rgba(0, 0, 0, 0); font-family: monospace; font-size: 0px; text-align: start; text-wrap: nowrap;&quot;&gt;%3CmxGraphModel%3E%3Croot%3E%3CmxCell%20id%3D%220%22%2F%3E%3CmxCell%20id%3D%221%22%20parent%3D%220%22%2F%3E%3CmxCell%20id%3D%222%22%20value%3D%22reserve%20product%22%20style%3D%22rounded%3D1%3BwhiteSpace%3Dwrap%3Bhtml%3D1%3B%22%20vertex%3D%221%22%20parent%3D%221%22%3E%3CmxGeometry%20x%3D%22410%22%20y%3D%22350%22%20width%3D%22100%22%20height%3D%2230%22%20as%3D%22geometry%22%2F%3E%3C%2FmxCell%3E%3C%2Froot%3E%3C%2FmxGraphModel%3E&lt;/span&gt;" style="rhombus;whiteSpace=wrap;html=1;rounded=1;" vertex="1" parent="1">
          <mxGeometry x="630" y="325" width="80" height="80" as="geometry" />
        </mxCell>
        <mxCell id="mvvNwBFlLe_bmaQ3kqd8-34" value="start production process" style="rounded=1;whiteSpace=wrap;html=1;" vertex="1" parent="1">
          <mxGeometry x="540" y="410" width="100" height="30" as="geometry" />
        </mxCell>
        <mxCell id="mvvNwBFlLe_bmaQ3kqd8-35" value="fill order to buy" style="rounded=1;whiteSpace=wrap;html=1;" vertex="1" parent="1">
          <mxGeometry x="700" y="410" width="100" height="30" as="geometry" />
        </mxCell>
        <mxCell id="mvvNwBFlLe_bmaQ3kqd8-37" style="edgeStyle=orthogonalEdgeStyle;rounded=0;orthogonalLoop=1;jettySize=auto;html=1;exitX=1;exitY=0.5;exitDx=0;exitDy=0;entryX=0.58;entryY=-0.033;entryDx=0;entryDy=0;entryPerimeter=0;" edge="1" parent="1" source="mvvNwBFlLe_bmaQ3kqd8-33" target="mvvNwBFlLe_bmaQ3kqd8-35">
          <mxGeometry relative="1" as="geometry" />
        </mxCell>
        <mxCell id="mvvNwBFlLe_bmaQ3kqd8-40" value="yes" style="text;html=1;align=center;verticalAlign=middle;resizable=0;points=[];autosize=1;strokeColor=none;fillColor=none;" vertex="1" parent="1">
          <mxGeometry x="440" y="258" width="40" height="30" as="geometry" />
        </mxCell>
        <mxCell id="mvvNwBFlLe_bmaQ3kqd8-41" value="no" style="text;html=1;align=center;verticalAlign=middle;resizable=0;points=[];autosize=1;strokeColor=none;fillColor=none;" vertex="1" parent="1">
          <mxGeometry x="630" y="258" width="40" height="30" as="geometry" />
        </mxCell>
        <mxCell id="mvvNwBFlLe_bmaQ3kqd8-42" value="yes" style="text;html=1;align=center;verticalAlign=middle;resizable=0;points=[];autosize=1;strokeColor=none;fillColor=none;" vertex="1" parent="1">
          <mxGeometry x="560" y="338" width="40" height="30" as="geometry" />
        </mxCell>
        <mxCell id="mvvNwBFlLe_bmaQ3kqd8-43" value="no" style="text;html=1;align=center;verticalAlign=middle;resizable=0;points=[];autosize=1;strokeColor=none;fillColor=none;" vertex="1" parent="1">
          <mxGeometry x="720" y="328" width="40" height="30" as="geometry" />
        </mxCell>
        <mxCell id="mvvNwBFlLe_bmaQ3kqd8-48" style="edgeStyle=orthogonalEdgeStyle;rounded=0;orthogonalLoop=1;jettySize=auto;html=1;entryX=0.5;entryY=0;entryDx=0;entryDy=0;" edge="1" parent="1" source="mvvNwBFlLe_bmaQ3kqd8-44" target="mvvNwBFlLe_bmaQ3kqd8-45">
          <mxGeometry relative="1" as="geometry" />
        </mxCell>
        <mxCell id="mvvNwBFlLe_bmaQ3kqd8-44" value="" style="html=1;points=[];perimeter=orthogonalPerimeter;fillColor=strokeColor;direction=south;" vertex="1" parent="1">
          <mxGeometry x="540" y="470" width="249.5" height="5" as="geometry" />
        </mxCell>
        <mxCell id="mvvNwBFlLe_bmaQ3kqd8-45" value="update invertory" style="rounded=1;whiteSpace=wrap;html=1;" vertex="1" parent="1">
          <mxGeometry x="614.75" y="510" width="100" height="30" as="geometry" />
        </mxCell>
        <mxCell id="mvvNwBFlLe_bmaQ3kqd8-46" style="edgeStyle=orthogonalEdgeStyle;rounded=0;orthogonalLoop=1;jettySize=auto;html=1;exitX=0.5;exitY=1;exitDx=0;exitDy=0;entryX=0;entryY=0.8;entryDx=0;entryDy=0;entryPerimeter=0;" edge="1" parent="1" source="mvvNwBFlLe_bmaQ3kqd8-34" target="mvvNwBFlLe_bmaQ3kqd8-44">
          <mxGeometry relative="1" as="geometry" />
        </mxCell>
        <mxCell id="mvvNwBFlLe_bmaQ3kqd8-47" style="edgeStyle=orthogonalEdgeStyle;rounded=0;orthogonalLoop=1;jettySize=auto;html=1;entryX=0.4;entryY=0.158;entryDx=0;entryDy=0;entryPerimeter=0;" edge="1" parent="1" source="mvvNwBFlLe_bmaQ3kqd8-35" target="mvvNwBFlLe_bmaQ3kqd8-44">
          <mxGeometry relative="1" as="geometry" />
        </mxCell>
        <mxCell id="mvvNwBFlLe_bmaQ3kqd8-49" value="" style="html=1;points=[];perimeter=orthogonalPerimeter;fillColor=strokeColor;direction=south;" vertex="1" parent="1">
          <mxGeometry x="425.25" y="569.5" width="274.75" height="5" as="geometry" />
        </mxCell>
        <mxCell id="mvvNwBFlLe_bmaQ3kqd8-50" style="edgeStyle=orthogonalEdgeStyle;rounded=0;orthogonalLoop=1;jettySize=auto;html=1;entryX=-0.3;entryY=0.874;entryDx=0;entryDy=0;entryPerimeter=0;" edge="1" parent="1" source="mvvNwBFlLe_bmaQ3kqd8-30" target="mvvNwBFlLe_bmaQ3kqd8-49">
          <mxGeometry relative="1" as="geometry" />
        </mxCell>
        <mxCell id="mvvNwBFlLe_bmaQ3kqd8-51" style="edgeStyle=orthogonalEdgeStyle;rounded=0;orthogonalLoop=1;jettySize=auto;html=1;entryX=0.3;entryY=0.127;entryDx=0;entryDy=0;entryPerimeter=0;" edge="1" parent="1" source="mvvNwBFlLe_bmaQ3kqd8-45" target="mvvNwBFlLe_bmaQ3kqd8-49">
          <mxGeometry relative="1" as="geometry" />
        </mxCell>
        <mxCell id="mvvNwBFlLe_bmaQ3kqd8-58" style="edgeStyle=orthogonalEdgeStyle;rounded=0;orthogonalLoop=1;jettySize=auto;html=1;entryX=0.5;entryY=0;entryDx=0;entryDy=0;" edge="1" parent="1" source="mvvNwBFlLe_bmaQ3kqd8-54" target="mvvNwBFlLe_bmaQ3kqd8-57">
          <mxGeometry relative="1" as="geometry">
            <Array as="points">
              <mxPoint x="350" y="650" />
              <mxPoint x="350" y="650" />
            </Array>
          </mxGeometry>
        </mxCell>
        <mxCell id="mvvNwBFlLe_bmaQ3kqd8-54" value="" style="html=1;points=[];perimeter=orthogonalPerimeter;fillColor=strokeColor;direction=south;" vertex="1" parent="1">
          <mxGeometry x="70" y="630" width="657.37" height="5" as="geometry" />
        </mxCell>
        <mxCell id="mvvNwBFlLe_bmaQ3kqd8-55" style="edgeStyle=orthogonalEdgeStyle;rounded=0;orthogonalLoop=1;jettySize=auto;html=1;entryX=0;entryY=0.925;entryDx=0;entryDy=0;entryPerimeter=0;" edge="1" parent="1" source="mvvNwBFlLe_bmaQ3kqd8-16" target="mvvNwBFlLe_bmaQ3kqd8-54">
          <mxGeometry relative="1" as="geometry" />
        </mxCell>
        <mxCell id="mvvNwBFlLe_bmaQ3kqd8-56" style="edgeStyle=orthogonalEdgeStyle;rounded=0;orthogonalLoop=1;jettySize=auto;html=1;entryX=0.4;entryY=0.25;entryDx=0;entryDy=0;entryPerimeter=0;" edge="1" parent="1" source="mvvNwBFlLe_bmaQ3kqd8-49" target="mvvNwBFlLe_bmaQ3kqd8-54">
          <mxGeometry relative="1" as="geometry" />
        </mxCell>
        <mxCell id="mvvNwBFlLe_bmaQ3kqd8-59" style="edgeStyle=orthogonalEdgeStyle;rounded=0;orthogonalLoop=1;jettySize=auto;html=1;entryX=0;entryY=0.5;entryDx=0;entryDy=0;" edge="1" parent="1" source="mvvNwBFlLe_bmaQ3kqd8-57" target="mvvNwBFlLe_bmaQ3kqd8-60">
          <mxGeometry relative="1" as="geometry">
            <mxPoint x="440" y="675" as="targetPoint" />
          </mxGeometry>
        </mxCell>
        <mxCell id="mvvNwBFlLe_bmaQ3kqd8-57" value="process order for shipping" style="rounded=1;whiteSpace=wrap;html=1;" vertex="1" parent="1">
          <mxGeometry x="300" y="660" width="100" height="30" as="geometry" />
        </mxCell>
        <mxCell id="mvvNwBFlLe_bmaQ3kqd8-60" value="" style="ellipse;html=1;shape=endState;fillColor=strokeColor;" vertex="1" parent="1">
          <mxGeometry x="460" y="660" width="30" height="30" as="geometry" />
        </mxCell>
      </root>
    </mxGraphModel>
  </diagram>
</mxfile>
